<svg width="720" height="180" viewBox="0 0 720 180" fill="none" xmlns="http://www.w3.org/2000/svg" role="img" aria-labelledby="title desc">
  <title id="title">FinCalcPro logo</title>
  <desc id="desc">Logo de FinCalcPro con simbolo financiero, curva de crecimiento y texto de marca.</desc>
  <defs>
    <linearGradient id="markGradient" x1="18" y1="18" x2="154" y2="154" gradientUnits="userSpaceOnUse">
      <stop stop-color="#14B8A6"/>
      <stop offset="1" stop-color="#2563EB"/>
    </linearGradient>
    <linearGradient id="accentGradient" x1="44" y1="112" x2="132" y2="58" gradientUnits="userSpaceOnUse">
      <stop stop-color="#ECFEFF"/>
      <stop offset="1" stop-color="#FFFFFF"/>
    </linearGradient>
    <filter id="softShadow" x="-12" y="-8" width="204" height="204" filterUnits="userSpaceOnUse" color-interpolation-filters="sRGB">
      <feFlood flood-opacity="0" result="BackgroundImageFix"/>
      <feColorMatrix in="SourceAlpha" type="matrix" values="0 0 0 0 0 0 0 0 0 0 0 0 0 0 0 0 0 0 127 0" result="hardAlpha"/>
      <feOffset dy="14"/>
      <feGaussianBlur stdDeviation="14"/>
      <feColorMatrix type="matrix" values="0 0 0 0 0.02 0 0 0 0 0.13 0 0 0 0 0.19 0 0 0 0.22 0"/>
      <feBlend mode="normal" in2="BackgroundImageFix" result="effect1_dropShadow"/>
      <feBlend mode="normal" in="SourceGraphic" in2="effect1_dropShadow" result="shape"/>
    </filter>
  </defs>

  <g filter="url(#softShadow)">
    <rect x="20" y="20" width="140" height="140" rx="32" fill="url(#markGradient)"/>
    <path d="M55 109V58H98.5C108.5 58 116.6 66.1 116.6 76.1C116.6 86.1 108.5 94.2 98.5 94.2H76.6V109H55ZM76.6 77.6H98.1C100.6 77.6 102.6 75.6 102.6 73.1C102.6 70.6 100.6 68.6 98.1 68.6H76.6V77.6Z" fill="white"/>
    <path d="M58 121C78.5 113 87.7 102.1 98.5 90.7C108.5 80.1 118.9 68.9 139 61" stroke="url(#accentGradient)" stroke-width="8" stroke-linecap="round"/>
    <circle cx="139" cy="61" r="7" fill="white"/>
    <circle cx="98.5" cy="90.7" r="5.5" fill="#ECFEFF"/>
  </g>

  <text x="194" y="82" fill="#0F172A" font-family="Segoe UI, Arial, sans-serif" font-size="48" font-weight="800" letter-spacing="0">FinCalcPro</text>
  <text x="198" y="119" fill="#0F766E" font-family="Segoe UI, Arial, sans-serif" font-size="21" font-weight="700" letter-spacing="2.4">INGENIERIA ECONOMICA</text>
  <path d="M198 136H470" stroke="#D6E3EE" stroke-width="4" stroke-linecap="round"/>
  <path d="M198 136H342" stroke="#0F766E" stroke-width="4" stroke-linecap="round"/>
</svg>
